HIERARCHY
ROOT Bip001_Pelvis
{
  OFFSET 34.4345 95.6767 -26.8758
  CHANNELS 6 Xposition Yposition Zposition Zrotation Xrotation Yrotation
  JOINT Bip001_Spine
  {
    OFFSET 1.4188e-005 10.2191 -0.0116013
    CHANNELS 3 Zrotation Xrotation Yrotation
    JOINT Bip001_L_Thigh
    {
      OFFSET 11.0458 -10.2192 0.0116197
      CHANNELS 3 Zrotation Xrotation Yrotation
      JOINT Bip001_L_Calf
      {
        OFFSET -0.707118 -44.0221 0.360014
        CHANNELS 3 Zrotation Xrotation Yrotation
        JOINT Bip001_L_Foot
        {
          OFFSET -0.651902 -40.5938 -3.56146
          CHANNELS 3 Zrotation Xrotation Yrotation
          JOINT Bip001_L_Toe0
          {
            OFFSET 0.0530839 -10.2181 13.1504
            CHANNELS 3 Zrotation Xrotation Yrotation
            End Site
            {
              OFFSET -1.02532e-005 0 7.55606
            }
          }
        }
      }
    }
    JOINT Bip001_R_Thigh
    {
      OFFSET -11.0458 -10.2191 0.0115893
      CHANNELS 3 Zrotation Xrotation Yrotation
      JOINT Bip001_R_Calf
      {
        OFFSET 0.706994 -44.0221 0.35984
        CHANNELS 3 Zrotation Xrotation Yrotation
        JOINT Bip001_R_Foot
        {
          OFFSET 0.651786 -40.5938 -3.5613
          CHANNELS 3 Zrotation Xrotation Yrotation
          JOINT Bip001_R_Toe0
          {
            OFFSET -0.0531479 -10.2181 13.1504
            CHANNELS 3 Zrotation Xrotation Yrotation
            End Site
            {
              OFFSET -1.02894e-005 0 7.55606
            }
          }
        }
      }
    }
    JOINT Bip001_Spine1
    {
      OFFSET 1.87041e-005 14.5736 1.08638
      CHANNELS 3 Zrotation Xrotation Yrotation
      JOINT Bip001_Spine2
      {
        OFFSET 2.24614e-005 14.5058 -1.69078
        CHANNELS 3 Zrotation Xrotation Yrotation
        JOINT Bip001_Neck
        {
          OFFSET 2.20278e-005 15.3945 -0.489414
          CHANNELS 3 Zrotation Xrotation Yrotation
          JOINT Bip001_L_Clavicle
          {
            OFFSET 6.06036 -0.000579998 0.00836775
            CHANNELS 3 Zrotation Xrotation Yrotation
            JOINT Bip001_L_UpperArm
            {
              OFFSET 11.5509 -0.0600302 0.00193952
              CHANNELS 3 Zrotation Xrotation Yrotation
              JOINT Bip001_L_Forearm
              {
                OFFSET 25.9523 0.0806089 -2.15551
                CHANNELS 3 Zrotation Xrotation Yrotation
                JOINT Bip001_L_Hand
                {
                  OFFSET 32.2475 0.153767 1.63968
                  CHANNELS 3 Zrotation Xrotation Yrotation
                  JOINT Bip001_L_Finger0
                  {
                    OFFSET 6.04639 -2.20976 5.90322
                    CHANNELS 3 Zrotation Xrotation Yrotation
                    End Site
                    {
                      OFFSET 4.22375 -1.43895 0.606485
                    }
                  }
                  JOINT Bip001_L_Finger1
                  {
                    OFFSET 11.0826 -0.704819 -0.198153
                    CHANNELS 3 Zrotation Xrotation Yrotation
                    End Site
                    {
                      OFFSET 6.20027 -0.397518 -0.0787166
                    }
                  }
                }
              }
            }
          }
          JOINT Bip001_R_Clavicle
          {
            OFFSET -6.06037 -0.000563197 0.00835105
            CHANNELS 3 Zrotation Xrotation Yrotation
            JOINT Bip001_R_UpperArm
            {
              OFFSET -11.5509 -0.0599978 0.00190698
              CHANNELS 3 Zrotation Xrotation Yrotation
              JOINT Bip001_R_Forearm
              {
                OFFSET -25.9523 0.0806822 -2.15589
                CHANNELS 3 Zrotation Xrotation Yrotation
                JOINT Bip001_R_Hand
                {
                  OFFSET -32.2475 0.153859 1.63989
                  CHANNELS 3 Zrotation Xrotation Yrotation
                  JOINT Bip001_R_Finger0
                  {
                    OFFSET -6.04641 -2.20976 5.90317
                    CHANNELS 3 Zrotation Xrotation Yrotation
                    End Site
                    {
                      OFFSET -4.22376 -1.43895 0.60647
                    }
                  }
                  JOINT Bip001_R_Finger1
                  {
                    OFFSET -11.0826 -0.704794 -0.198182
                    CHANNELS 3 Zrotation Xrotation Yrotation
                    End Site
                    {
                      OFFSET -6.20028 -0.397504 -0.0787333
                    }
                  }
                }
              }
            }
          }
          JOINT Bip001_Head
          {
            OFFSET 1.09673e-005 11.2744 2.05948
            CHANNELS 3 Zrotation Xrotation Yrotation
            End Site
            {
              OFFSET 2.89576e-005 20.8808 -2.77728e-005
            }
          }
        }
      }
    }
  }
}
MOTION
Frames:	13
Frame Time:	0.04
34.3052 95.9707 -28.3728 0.312947 -0.266383 0.479923 -0.269385 2.06578 -0.245246 4.31236 -2.07917 7.4148 -0.706364 6.02125 -6.66931 4.19292 -3.35889 -0.0896838 1.05581 -4.81224 -0.442035 -3.9451 -2.98051 -2.41498 -0.332233 9.87179 0.69686 -4.82778 -9.0128 3.79508 2.28472 -7.73549 2.37643 -0.518176 4.14267 -0.469669 -0.520112 4.14267 -0.46984 0.726543 -8.09284 -1.69727 -25.1124 9.31347 -0.401425 -58.157 46.7424 5.34813 15.9608 -2.76299 -22.2786 7.58615 1.15865 -2.93992 -9.54166e-015 1.27222e-014 -0 -6.36111e-015 1.27222e-014 -1.59028e-015 24.8729 16.4652 20.873 66.3426 44.8656 -13.5872 -21.1854 1.17079 13.6641 6.32513 -2.61993 14.1913 4.77083e-015 0 1.59028e-015 3.18055e-015 -3.18056e-015 7.95139e-016 -0.143603 -4.96486 -1.45352 
34.3246 95.9795 -28.3364 0.313193 -0.288977 0.491148 -0.269385 2.06578 -0.245246 4.30675 -2.02611 7.4506 -0.68345 6.00391 -6.59805 4.10914 -3.40927 -0.0725078 1.13623 -4.81353 -0.531101 -3.94264 -2.89745 -2.4355 -0.344952 9.78826 0.663202 -4.78722 -8.97625 3.83873 2.24727 -7.65602 2.39383 -0.517296 4.14266 -0.481845 -0.519263 4.14267 -0.481604 0.705858 -8.07753 -1.64487 -25.1447 9.26772 -0.298329 -58.1411 46.7681 5.30398 15.98 -2.83396 -22.2153 7.62641 1.20065 -2.87272 -6.36111e-015 9.54166e-015 -0 -6.36111e-015 1.27222e-014 -0 24.898 16.4743 20.9626 65.9721 43.8467 -13.2675 -21.1687 1.77447 13.8812 6.50837 -2.36084 14.1502 1.76556e-031 -6.36111e-015 1.59028e-015 2.64834e-031 -3.18056e-015 4.77083e-015 -0.0438 -5.12917 -1.42708 
34.3366 95.9921 -28.2994 0.313421 -0.291646 0.531454 -0.269486 2.05927 -0.243215 4.31991 -2.00907 7.4641 -0.679293 6.07026 -6.57203 3.70035 -3.70615 -0.0533406 0.98084 -4.49129 -0.444226 -3.94935 -2.78548 -2.45122 -0.329066 9.65538 0.63711 -4.77074 -8.91228 3.81576 2.24639 -7.65127 2.39332 -0.519747 4.12106 -0.477387 -0.519747 4.12106 -0.477387 0.84876 -7.93172 -1.68092 -25.3635 9.10056 -0.280646 -58.0352 46.6991 5.38275 15.9674 -2.79373 -22.2923 7.74722 1.13335 -2.94181 3.18055e-015 0 -3.18055e-015 0 0 -1.59028e-015 24.8072 16.3519 20.9972 65.9369 43.5924 -13.6082 -21.3531 1.58769 14.1951 6.56406 -2.18105 14.1328 -1.59028e-015 3.18055e-015 -1.98785e-015 -1.59028e-015 3.18056e-015 -2.38542e-015 -0.0882089 -5.36624 -1.42298 
34.3352 95.9904 -28.2667 0.34464 -0.290965 0.537992 -0.270606 2.05376 -0.212635 4.29919 -1.92926 7.24808 -0.716724 5.9412 -6.39916 3.7504 -3.63748 -0.0534613 0.985478 -4.54014 -0.43667 -3.97897 -2.77189 -2.48136 -0.323807 9.68771 0.62353 -4.77905 -8.95002 3.81473 2.24882 -7.68254 2.40444 -0.536518 4.09739 -0.415921 -0.537144 4.0974 -0.415898 1.13393 -7.85363 -1.82913 -25.6854 8.96357 -0.216982 -57.9107 46.8132 5.39618 15.8339 -2.99218 -22.2639 7.72234 1.13634 -2.88625 -3.18055e-015 -3.18055e-015 -0 -3.18055e-015 -3.18056e-015 -0 24.5373 16.2568 20.8681 66.0968 43.9047 -14.0994 -21.6816 1.05772 14.4129 6.63603 -2.13269 14.2345 -1.32417e-031 -6.36111e-015 -1.19271e-015 1.76556e-031 -6.36111e-015 1.59028e-015 -0.243938 -5.433 -1.47207 
34.3105 95.984 -28.2335 0.342169 -0.307118 0.514315 -0.271687 2.0539 -0.182441 4.29438 -1.94414 7.70511 -0.632204 6.05012 -6.87178 3.82715 -3.65174 -0.0539327 1.01937 -4.59853 -0.449397 -3.96119 -2.77124 -2.46944 -0.321553 9.75635 0.612395 -4.77974 -8.9874 3.81327 2.2472 -7.66895 2.39785 -0.537107 4.10217 -0.356047 -0.537129 4.10218 -0.356052 1.1922 -7.77118 -1.91196 -25.7474 8.86767 -0.235806 -57.8294 46.9699 5.37898 15.6547 -3.41549 -22.2074 7.47334 1.28802 -2.69957 -6.36111e-015 -9.54166e-015 -0 -3.18055e-015 -6.36111e-015 -1.59028e-015 24.3261 16.107 20.7521 66.3875 44.0751 -14.4268 -21.9074 0.69039 14.6223 6.5638 -2.03756 14.1604 3.18055e-015 -3.18055e-015 1.59028e-015 3.18055e-015 -3.18056e-015 -0 -0.209593 -5.63478 -1.54477 
34.2746 95.9872 -28.1985 0.32564 -0.341436 0.545513 -0.272222 2.06659 -0.166496 4.31582 -1.91857 7.61812 -0.598152 6.04919 -6.73249 3.80906 -3.63245 -0.0588717 1.12872 -4.62275 -0.565833 -3.91601 -2.69328 -2.47505 -0.312472 9.69213 0.5677 -4.78729 -8.97727 3.78887 2.24462 -7.63877 2.38829 -0.526532 4.13299 -0.325892 -0.526843 4.13301 -0.325804 1.2066 -7.74044 -1.97049 -25.728 8.85511 -0.323229 -57.8346 47.0109 5.38478 15.5442 -3.62208 -22.1669 7.51004 1.33008 -2.6165 -3.18055e-015 -1.59028e-014 7.95139e-015 -6.36111e-015 -1.27222e-014 7.95139e-015 24.2432 16.0339 20.6498 66.5519 44.1114 -14.6295 -21.9854 0.437069 14.723 6.38616 -2.15063 14.134 4.41391e-031 6.36111e-015 -3.97569e-015 -1.59028e-015 6.36111e-015 -7.95139e-016 -0.175654 -5.78803 -1.6042 
34.2459 95.9787 -28.1557 0.362192 -0.367954 0.54771 -0.273063 2.07237 -0.142769 4.27168 -1.84212 7.5579 -0.573802 5.97661 -6.70463 3.85501 -3.5729 -0.0609339 1.17905 -4.70328 -0.600069 -3.94253 -2.65963 -2.50255 -0.29956 9.73186 0.575763 -4.81899 -9.052 3.77535 2.25641 -7.65144 2.35094 -0.530966 4.14613 -0.276438 -0.530957 4.14614 -0.276564 1.33592 -7.70082 -2.04538 -25.8001 8.83699 -0.480878 -57.8781 46.9079 5.43046 15.4106 -3.79835 -22.1835 7.48978 1.30385 -2.5739 6.36111e-015 3.18055e-015 -1.59028e-015 3.18055e-015 3.18056e-015 -1.59028e-015 24.0754 15.9976 20.6597 66.7011 43.9569 -14.7283 -21.8919 0.394735 14.6785 5.97042 -2.65487 14.1452 -1.59028e-015 9.54166e-015 1.19271e-015 -1.32417e-031 6.36111e-015 1.19271e-015 -0.238817 -5.84942 -1.63664 
34.2037 95.9798 -28.1188 0.367249 -0.358573 0.537623 -0.274185 2.07335 -0.111682 4.30608 -1.8308 7.28312 -0.590108 5.99787 -6.44194 3.5061 -3.79104 -0.0502499 1.01028 -4.46678 -0.449261 -3.92674 -2.65563 -2.48588 -0.283873 9.75879 0.574121 -4.858 -9.07474 3.73243 2.26493 -7.6526 2.33512 -0.537494 4.14238 -0.213909 -0.537121 4.14238 -0.213903 1.44418 -7.6494 -2.12639 -25.9117 8.78966 -0.562011 -57.8949 46.7258 5.51335 15.3578 -3.71455 -22.2851 7.49136 1.17947 -2.61163 3.18055e-015 -6.36111e-015 3.18055e-015 3.18055e-015 -6.36111e-015 3.18055e-015 24.0176 15.8955 20.4394 66.7649 43.8866 -14.8113 -21.7938 0.459052 14.6489 5.48622 -3.22005 14.0554 -0 0 3.97569e-016 -4.41391e-032 3.18056e-015 7.95139e-016 -0.306231 -5.84989 -1.6784 
34.164 95.9923 -28.0815 0.393303 -0.344967 0.549601 -0.275037 2.07406 -0.0904997 4.28075 -1.67267 5.76815 -0.70727 5.61564 -4.96198 3.52724 -3.55895 -0.0487098 1.06771 -4.5312 -0.499232 -3.91976 -2.62148 -2.46956 -0.266959 9.70157 0.544861 -4.87743 -9.06911 3.69522 2.26504 -7.64957 2.34023 -0.554425 4.14351 -0.171089 -0.554394 4.14352 -0.171093 1.48888 -7.53455 -2.18983 -25.7854 8.72807 -0.814671 -58.1549 46.5419 5.61153 15.5396 -3.37436 -22.2537 7.53979 1.07244 -2.74282 0 0 -1.59028e-015 3.18055e-015 0 -3.18055e-015 24.0037 15.7388 20.2686 66.6824 43.689 -14.7308 -21.6469 0.684187 14.5694 4.99594 -3.73416 14.1472 -1.32417e-031 6.36111e-015 1.19271e-015 4.41391e-032 6.36111e-015 -3.97569e-016 -0.290184 -6.08722 -1.73288 
34.1321 95.9829 -28.0385 0.424048 -0.341777 0.530148 -0.2777 2.07506 -0.0550914 4.28277 -1.70346 6.68099 -0.584083 5.78438 -5.85015 3.31707 -3.78872 -0.0474842 1.01825 -4.4069 -0.459411 -3.93345 -2.63661 -2.36779 -0.212196 9.80162 0.528772 -4.93726 -9.13473 3.56454 2.26503 -7.65754 2.34239 -0.57996 4.14646 -0.0997078 -0.579643 4.14649 -0.0997066 1.57268 -7.48967 -2.26216 -25.761 8.69269 -0.919031 -58.2299 46.4354 5.61333 15.5363 -3.26653 -22.2845 7.68644 1.16571 -2.77492 3.18055e-015 3.18055e-015 1.59028e-015 3.18055e-015 3.18056e-015 1.59028e-015 23.8107 15.6068 20.0698 66.9099 43.8636 -14.7989 -21.6587 0.524755 14.4642 4.68729 -4.23448 14.1651 0 0 -7.95139e-016 1.59028e-015 -3.18056e-015 1.59028e-015 -0.326573 -6.21777 -1.77706 
34.0757 95.9695 -27.9988 0.390546 -0.321179 0.590129 -0.279303 2.0864 -0.0396025 4.35954 -1.7992 7.01514 -0.574425 5.94896 -6.30571 3.37779 -3.84108 -0.0463243 1.00521 -4.45158 -0.418646 -3.8806 -2.62525 -2.31577 -0.169802 9.78513 0.479803 -4.99611 -9.1768 3.46061 2.26471 -7.66863 2.34134 -0.557496 4.16925 -0.0691863 -0.557609 4.16926 -0.0691516 1.55592 -7.57593 -2.30088 -25.7735 8.79005 -0.958342 -58.0696 46.4151 5.4579 15.348 -3.59126 -22.296 7.73721 1.28417 -2.73144 8.82781e-031 -1.59028e-014 3.18055e-015 3.53113e-031 -1.27222e-014 1.59028e-015 23.6463 15.6749 20.1034 67.071 43.7022 -15.0133 -21.6287 0.322492 14.5861 4.51144 -4.5583 14.1844 1.59028e-015 -6.36111e-015 3.97569e-015 1.59028e-015 -3.18056e-015 1.59028e-015 -0.281774 -6.30695 -1.82948 
34.0467 95.9706 -27.9545 0.446349 -0.281409 0.685938 -0.280247 2.08751 -0.0279965 4.31243 -1.78784 6.98007 -0.555715 5.84419 -6.37769 3.36961 -3.77894 -0.0450197 1.01166 -4.42974 -0.445746 -3.93581 -2.66484 -2.17294 -0.0873215 9.87539 0.410649 -5.05239 -9.2188 3.27719 2.26338 -7.65401 2.33916 -0.560486 4.1814 -0.0450022 -0.560227 4.18139 -0.0453713 1.4036 -7.59196 -2.33059 -25.7129 8.81612 -0.968009 -57.7033 46.1195 5.22383 15.2284 -3.37484 -22.4179 7.57233 1.23232 -2.85109 0 0 -0 -3.18055e-015 -3.18056e-015 -0 23.5173 15.7083 20.3743 67.0776 43.1835 -15.1267 -21.3067 0.239007 14.7353 4.30306 -4.93764 14.3486 0 9.54166e-015 -0 1.59028e-015 6.36111e-015 2.38542e-015 -0.174446 -6.52696 -1.91203 
34.0367 95.9623 -27.9094 0.530042 -0.248607 0.919238 -0.301116 2.07764 -0.0257366 4.23425 -1.79695 6.77293 -0.507467 5.79978 -6.35547 3.27517 -3.78474 -0.0433665 1.0427 -4.39869 -0.468557 -4.01382 -2.63134 -2.30378 -0.0195478 9.93495 0.433015 -5.13899 -9.32324 3.13899 2.26366 -7.65341 2.33668 -0.601081 4.15575 -0.0556309 -0.601099 4.15575 -0.0554801 1.20984 -7.73503 -2.37933 -25.513 8.95728 -0.936163 -57.6182 46.0338 5.17013 15.0708 -3.47562 -22.3852 7.69617 1.19628 -2.95299 -6.36111e-015 -9.54166e-015 1.59028e-015 -9.54166e-015 -6.36111e-015 1.59028e-015 23.6693 15.9079 20.5199 66.8316 42.4817 -15.1717 -21.0551 0.265593 14.8693 4.06735 -5.31219 14.5295 -1.59028e-015 3.18055e-015 -1.59028e-015 0 0 -1.59028e-015 -0.0381647 -6.42507 -2.0272 
